<?xml version="1.0" standalone="no"?><!DOCTYPE svg PUBLIC "-//W3C//DTD SVG 1.1//EN" "http://www.w3.org/Graphics/SVG/1.1/DTD/svg11.dtd"><svg t="1673682370513" class="icon" viewBox="0 0 1024 1024" version="1.1" xmlns="http://www.w3.org/2000/svg" p-id="997" xmlns:xlink="http://www.w3.org/1999/xlink" width="200" height="200"><path d="M268.25 635.32h-0.24c-57.42-1.12-111.26-22.46-151.6-60.11-40.69-37.97-63.1-88.25-63.1-141.58 0-54.09 22.96-104.88 64.65-143.01 41.39-37.86 96.35-58.72 154.76-58.72 6.62 0 13.41 0.34 20.84 1.07C321.97 126.69 428.42 50.64 551.17 50.64c70.55 0 136.94 24.61 186.94 69.3 50.38 45.03 78.12 105.01 78.12 168.89 0 0.65-0.01 1.29-0.03 1.92 41.05 7.6 78.47 26.83 106.33 54.82 31.04 31.2 48.14 71.28 48.14 112.87 0 44.02-18.86 85.86-53.1 117.81-33.67 31.42-79.07 50.35-127.86 53.33-6.62 0.4-12.3-4.63-12.71-11.25-0.4-6.62 4.63-12.3 11.25-12.71 88.83-5.41 158.42-70.06 158.42-147.18 0-72.14-62.21-134.76-144.69-145.66-6.24-0.82-10.78-6.33-10.41-12.61 0.08-1.34 0.18-2.67 0.28-4 0.2-2.58 0.38-5.01 0.38-7.34 0-118.11-108.14-214.19-241.07-214.19-115.56 0-215.1 73.17-236.68 173.98-1.31 6.12-7.11 10.21-13.32 9.38-10.8-1.44-19.83-2.1-28.44-2.1-107.75 0-195.41 79.73-195.41 177.73 0 95.93 85.75 175.64 191.16 177.69 6.63 0.13 11.89 5.6 11.76 12.23-0.11 6.55-5.46 11.77-11.98 11.77z" fill="#0765D6" p-id="998"></path><path d="M329.58 973.36c-1.98 0-3.98-0.49-5.83-1.52-5.79-3.22-7.87-10.53-4.65-16.32l294.88-529.51c3.22-5.79 10.53-7.87 16.32-4.64 5.79 3.22 7.87 10.53 4.65 16.32l-294.88 529.5a11.995 11.995 0 0 1-10.49 6.17z" fill="#0765D6" p-id="999"></path><path d="M533.91 936.95c-1.98 0-3.98-0.49-5.83-1.52-5.79-3.22-7.87-10.53-4.65-16.32l129.3-232.17c3.22-5.79 10.53-7.87 16.32-4.65 5.79 3.22 7.87 10.53 4.65 16.32L544.4 930.78c-2.19 3.95-6.28 6.17-10.49 6.17zM259.33 794.56c-1.98 0-3.98-0.49-5.83-1.52-5.79-3.22-7.87-10.53-4.65-16.32l157.18-282.23c3.22-5.79 10.53-7.87 16.32-4.64 5.79 3.22 7.87 10.53 4.65 16.32L269.82 788.4c-2.19 3.94-6.28 6.16-10.49 6.16z" fill="#B340EA" p-id="1000"></path></svg>