<?xml version="1.0" standalone="no"?><!DOCTYPE svg PUBLIC "-//W3C//DTD SVG 1.1//EN" "http://www.w3.org/Graphics/SVG/1.1/DTD/svg11.dtd"><svg height="1080" legacy-metrics="false" node-id="1" sillyvg="true" template-height="1080" template-width="1080" version="1.1" viewBox="0 0 1080 1080" width="1080" xmlns="http://www.w3.org/2000/svg" xmlns:xlink="http://www.w3.org/1999/xlink"><defs node-id="25"></defs><path d="M 315.52 489.00 C 315.52 489.00 332.12 504.54 328.91 544.71 C 325.70 584.88 314.44 704.90 333.73 737.57 C 353.02 770.24 412.48 739.71 416.23 754.71 C 419.98 769.71 435.52 779.36 461.23 776.71 C 486.94 774.06 485.18 752.62 485.18 752.62 C 485.18 752.62 475.29 761.31 471.88 759.97 C 468.47 758.63 460.69 747.65 458.22 749.45 C 455.75 751.25 444.69 761.91 442.61 755.89 C 440.53 749.87 441.01 714.51 441.01 714.51 L 394.50 714.75 C 394.50 714.75 367.88 722.87 357.03 701.75 C 346.18 680.63 344.58 657.69 344.84 645.75 C 345.10 633.81 346.32 552.27 346.32 552.27 C 346.32 552.27 347.12 506.60 345.51 496.69 C 343.90 486.78 315.51 489.05 315.51 489.05 Z" fill="#f9f1cb" fill-rule="nonzero" id="path2582" node-id="7" stroke="none" target-height="288.28867" target-width="169.66998" target-x="315.51" target-y="488.82852"></path><path d="M 677.17 304.42 C 677.17 306.42 676.37 308.34 674.96 309.76 C 673.54 311.17 671.62 311.96 669.62 311.96 L 669.62 311.96 C 666.57 311.96 663.81 310.12 662.64 307.30 C 661.48 304.47 662.12 301.23 664.28 299.07 C 666.45 296.91 669.70 296.27 672.52 297.44 C 675.34 298.61 677.17 301.37 677.17 304.42 Z" fill="#e8a1a4" fill-rule="nonzero" id="path7004-5-5-1-7-6-7-12-0-1-2-5-0-8-0" node-id="8" stroke="none" target-height="15.101593" target-width="15.1015625" target-x="662.0684" target-y="296.8584"></path><path d="M 488.28 273.34 C 489.35 276.56 504.34 295.11 489.89 318.88 C 475.44 342.65 450.06 382.88 429.09 393.34 C 408.12 403.80 399.89 400.84 372.30 381.56 C 344.71 362.28 349.30 342.46 352.21 338.97 C 355.12 335.48 394.26 367.90 396.14 369.24 C 398.02 370.58 408.19 382.37 428.28 362.81 C 448.37 343.25 484.00 288.88 488.28 273.34 Z" fill="#f9f1cb" fill-rule="nonzero" id="path2584" node-id="9" stroke="none" target-height="125.924805" target-width="146.08075" target-x="350.063" target-y="273.34"></path><path d="M 558.56 600.37 C 558.56 600.37 544.26 745.00 526.05 779.86 C 507.84 814.72 471.40 792.18 457.48 815.22 C 443.56 838.26 394.26 843.61 378.73 826.47 C 363.20 809.33 286.59 793.79 266.73 818.97 C 246.87 844.15 279.86 852.18 279.86 852.18 L 521.00 852.18 C 521.00 852.18 560.60 854.06 561.40 823.00 C 562.20 791.94 558.56 600.37 558.56 600.37 Z" fill="#f9f1cb" fill-rule="nonzero" id="path2586" node-id="10" stroke="none" target-height="251.81" target-width="301.1273" target-x="260.38754" target-y="600.37"></path><path d="M 666.27 271.47 C 666.27 271.47 681.74 283.47 686.19 283.33 C 690.64 283.19 678.43 272.25 679.19 268.17 C 679.95 264.09 687.62 261.74 687.99 257.57 C 688.36 253.40 687.24 250.57 684.11 247.91 C 680.98 245.25 677.20 241.76 675.49 243.18 C 673.78 244.60 670.19 253.97 669.05 257.76 C 667.91 261.55 666.27 271.47 666.27 271.47 Z" fill="#9a702d" fill-rule="nonzero" id="path2745" node-id="11" stroke="none" target-height="40.45076" target-width="21.777527" target-x="666.27" target-y="242.87923"></path><path d="M 696.80 265.00 C 694.62 267.75 690.08 274.38 698.22 272.20 C 706.36 270.02 708.54 267.47 706.94 265.67 C 705.34 263.87 696.80 265.00 696.80 265.00 Z" fill="#9a702d" fill-rule="nonzero" id="path2747" node-id="12" stroke="none" target-height="7.94162" target-width="13.862244" target-x="693.5564" target-y="264.66"></path><path d="M 660.92 343.66 C 660.92 343.66 633.46 376.47 629.71 396.42 C 625.96 416.37 658.50 465.93 658.50 465.93 C 658.50 465.93 671.36 462.05 672.30 466.07 C 673.24 470.09 660.30 472.36 652.48 486.29 C 644.66 500.22 614.48 530.89 607.48 537.05 C 600.48 543.21 591.28 546.82 591.67 552.45 C 592.06 558.08 600.38 578.45 616.05 571.60 C 631.72 564.75 663.46 535.31 667.75 530.89 C 672.04 526.47 688.75 500.22 689.18 482.94 C 689.61 465.66 688.11 440.35 687.03 436.33 C 685.95 432.31 681.03 417.58 684.09 403.79 C 687.15 390.00 692.25 379.95 681.81 380.62 C 671.37 381.29 664.54 383.56 665.34 373.52 C 666.14 363.48 673.11 347.27 673.11 347.27 Z" fill="#f37a81" fill-rule="nonzero" id="path2785" node-id="13" stroke="none" target-height="229.34329" target-width="97.55524" target-x="591.67" target-y="343.66"></path><path d="M 679.67 346.07 C 679.67 346.07 673.77 366.83 673.77 372.32 C 673.77 377.81 672.03 378.75 676.77 378.75 C 681.51 378.75 692.71 376.34 693.37 384.37 C 694.03 392.40 690.70 404.37 690.16 415.18 C 689.62 425.99 698.60 453.75 695.51 469.18 C 692.42 484.61 685.87 506.18 683.46 510.43 C 681.05 514.68 664.46 536.82 662.03 551.28 C 659.60 565.74 665.51 597.62 674.22 608.28 C 682.93 618.94 688.55 620.61 694.84 605.34 C 701.13 590.07 716.84 523.91 717.48 513.34 C 718.12 502.77 720.16 446.51 715.34 417.04 C 710.52 387.57 692.44 349.68 692.34 349.04 C 692.24 348.40 687.12 342.21 687.12 342.21 Z" fill="#f37a81" fill-rule="nonzero" id="path2787" node-id="14" stroke="none" target-height="274.32278" target-width="56.928955" target-x="661.5285" target-y="342.21"></path><path d="M 729.62 298.66 C 729.62 298.66 734.17 307.76 733.24 311.66 C 732.31 315.56 751.72 350.00 760.83 360.00 C 768.82 368.71 777.31 376.94 786.27 384.64 C 788.40 386.42 790.64 388.07 792.97 389.59 C 792.97 389.59 793.37 354.37 783.06 347.68 C 772.75 340.99 757.75 341.51 755.20 339.11 C 752.65 336.71 755.74 331.48 760.56 325.58 C 765.38 319.68 764.04 314.33 751.72 309.38 C 744.12 306.30 736.74 302.72 729.62 298.66 Z" fill="#f37a81" fill-rule="nonzero" id="path2789" node-id="15" stroke="none" target-height="90.92999" target-width="63.349976" target-x="729.62" target-y="298.66"></path><path d="M 713.15 282.59 C 713.15 282.59 750.51 251.51 762.00 247.00 C 773.49 242.49 780.62 237.36 795.08 257.00 C 809.54 276.64 838.74 321.41 844.23 327.00 C 849.72 332.59 855.48 350.70 855.89 344.81 C 856.30 338.92 853.61 260.04 861.24 255.48 C 868.87 250.92 892.18 252.27 898.61 274.77 C 905.04 297.27 893.61 348.70 886.55 364.23 C 879.49 379.76 866.46 384.46 847.04 373.07 C 827.62 361.68 799.00 337.90 799.00 337.90 C 799.00 337.90 821.64 382.36 825.65 389.33 C 829.66 396.30 851.90 424.28 858.73 437.94 C 865.56 451.60 876.41 472.50 876.81 490.94 C 877.21 509.38 879.36 528.71 867.30 547.72 C 855.24 566.73 842.80 575.45 837.44 577.59 C 832.08 579.73 839.72 558.17 842.66 542.77 C 845.60 527.37 844.14 503.13 841.06 488.26 C 837.98 473.39 821.00 441.56 816.27 434.60 C 811.54 427.64 800.60 420.54 800.20 391.20 C 799.80 361.86 798.86 343.26 786.01 339.64 C 773.16 336.02 757.88 338.30 757.88 338.30 C 757.88 338.30 752.88 339.20 756.46 334.18 C 760.04 329.16 769.15 318.08 768.87 311.93 C 768.59 305.78 745.00 292.42 734.78 291.00 C 724.56 289.58 716.71 290.38 713.15 282.59 Z" fill="#f37a81" fill-rule="nonzero" id="path2791" node-id="16" stroke="none" target-height="334.8485" target-width="187.28949" target-x="713.15" target-y="242.85217"></path><path d="M 821.00 497.73 C 821.00 497.73 814.76 515.91 785.00 519.51 C 755.24 523.11 729.88 511.94 727.80 518.57 C 725.72 525.20 714.89 572.00 707.88 596.22 C 700.87 620.44 689.51 634.67 689.70 640.35 C 689.89 646.03 692.52 689.19 702.97 694.15 C 713.42 699.11 711.97 682.77 719.44 663.08 C 726.91 643.39 756.14 569.60 759.08 562.90 C 762.02 556.20 766.08 541.74 767.39 549.64 C 768.70 557.54 762.83 572.41 755.47 594.91 C 748.11 617.41 729.75 665.49 724.00 678.35 C 718.25 691.21 707.92 731.25 704.85 749.06 C 701.78 766.87 694.40 798.88 695.20 808.12 C 696.00 817.36 691.32 826.12 702.43 825.54 C 713.54 824.96 730.96 827.14 730.96 821.54 C 730.96 815.94 724.80 814.17 730.69 798.23 C 736.58 782.29 747.56 740.23 747.56 740.23 C 747.56 740.23 782.92 672.06 784.26 669.65 C 785.60 667.24 815.06 612.73 822.16 580.86 C 829.26 548.99 832.47 518.86 827.65 508.80 C 822.83 498.74 820.95 497.74 820.95 497.74 Z" fill="#c0a9d1" fill-rule="nonzero" id="path2793" node-id="17" stroke="none" target-height="327.80997" target-width="140.21136" target-x="689.7" target-y="497.73"></path><path d="M 784.13 694.00 C 784.13 694.00 761.00 730.45 760.00 734.87 C 759.00 739.29 785.71 772.10 797.89 785.49 C 810.07 798.88 821.23 806.12 823.50 814.00 C 825.77 821.88 832.08 821.11 839.44 812.67 C 846.80 804.23 857.79 793.52 857.39 789.23 C 856.99 784.94 848.95 783.60 841.72 777.31 C 834.49 771.02 808.72 740.21 798.33 722.13 C 787.94 704.05 784.13 694.00 784.13 694.00 Z" fill="#c0a9d1" fill-rule="nonzero" id="path2795" node-id="18" stroke="none" target-height="125.45502" target-width="97.390015" target-x="760" target-y="694"></path><path d="M 599.44 276.69 C 599.44 276.69 600.80 296.41 611.10 295.93 C 621.40 295.45 638.95 269.32 642.30 257.68 C 645.65 246.04 642.43 238.79 637.07 236.92 C 631.71 235.05 628.50 231.92 626.90 237.85 C 625.30 243.78 618.19 266.65 599.44 276.69 Z" fill="#aac3da" fill-rule="nonzero" id="path2797" node-id="19" stroke="none" target-height="61.481766" target-width="44.187073" target-x="599.44" target-y="234.44823"></path><path d="M 644.85 252.85 C 644.85 252.85 649.80 270.93 634.80 287.54 C 619.80 304.15 613.37 307.63 604.94 308.70 C 596.51 309.77 586.05 323.17 591.28 328.70 C 596.51 334.23 609.00 340.85 624.49 324.00 C 639.98 307.15 658.11 286.50 666.55 265.34 C 674.99 244.18 678.33 227.44 677.13 219.27 C 675.93 211.10 665.21 198.38 651.13 214.05 C 637.05 229.72 637.08 232.00 639.36 235.31 C 641.64 238.62 647.00 245.76 644.85 252.85 Z" fill="#aac3da" fill-rule="nonzero" id="path2799" node-id="20" stroke="none" target-height="128.13232" target-width="87.47241" target-x="589.88306" target-y="206.6102"></path><path d="M 282.38 156.54 C 258.08 156.54 240.17 156.73 238.94 157.04 C 228.45 159.70 219.63 169.18 216.64 181.04 C 215.99 183.60 215.41 244.28 215.03 350.53 C 214.70 442.00 214.00 526.75 213.36 540.00 C 212.11 567.89 212.01 632.00 213.19 648.00 C 213.63 654.05 213.59 673.00 213.09 690.00 C 212.48 710.93 212.55 732.20 213.32 755.50 C 213.97 775.50 214.17 803.50 213.79 822.00 C 213.20 850.41 213.32 854.90 214.89 862.00 C 216.75 870.52 220.25 878.57 223.69 882.25 L 226.46 885.37 L 235.11 885.37 L 230.50 880.55 C 226.05 875.90 224.33 873.15 221.96 865.50 C 220.41 860.50 220.22 850.50 219.89 754.50 C 219.69 696.50 219.24 635.72 218.89 619.50 C 218.51 602.06 218.72 578.14 219.41 561.00 C 220.12 543.26 220.75 465.60 221.01 361.00 C 221.26 267.00 221.67 188.09 221.94 185.75 C 222.94 176.44 231.36 165.57 238.94 163.65 C 244.52 162.23 258.08 162.12 337.44 162.86 C 486.99 164.27 552.54 165.55 558.44 167.18 C 572.44 171.04 579.91 179.18 582.34 193.07 C 582.91 196.34 583.73 224.33 584.07 255.50 L 584.31 277.64 C 584.36 277.02 584.45 276.40 584.59 275.79 C 586.11 269.45 590.76 263.68 590.76 263.68 L 590.00 225.42 C 589.39 192.71 589.10 188.77 587.28 183.90 C 584.45 176.18 578.93 169.74 571.73 165.77 C 561.42 160.28 557.06 159.65 525.59 159.06 C 509.81 158.77 482.73 158.20 465.41 157.78 C 448.09 157.36 420.63 157.01 404.41 156.98 C 388.19 156.95 344.98 156.79 308.41 156.61 C 299.26 156.61 290.41 156.54 282.35 156.54 Z M 316.12 176.54 C 312.91 176.54 307.95 176.82 299.12 177.34 C 288.01 178.01 275.69 178.54 271.74 178.54 C 261.79 178.54 250.82 180.98 246.61 184.19 C 244.33 186.15 242.48 188.58 241.19 191.30 C 239.31 195.56 239.19 198.55 238.79 247.91 C 238.27 314.12 236.71 396.08 235.30 431.51 C 234.69 446.64 234.09 504.24 233.96 559.51 C 233.83 614.78 233.37 677.51 232.96 699.01 C 232.24 736.23 232.41 744.62 235.34 812.68 C 236.15 831.49 236.34 832.59 239.05 838.11 C 242.59 845.21 247.32 850.11 253.33 852.90 C 257.68 854.90 259.22 855.00 281.92 854.71 C 295.12 854.54 359.25 854.08 424.42 853.71 L 542.92 853.00 C 551.65 853.00 561.18 842.26 562.78 836.15 C 563.98 831.54 564.30 828.56 565.01 717.91 L 565.73 600.10 C 562.97 599.45 558.54 596.70 558.54 596.70 L 558.54 596.70 L 558.61 714.70 C 558.67 819.35 558.53 829.36 557.00 833.01 C 554.27 839.52 549.93 843.20 542.00 845.75 C 540.14 846.35 494.28 847.05 424.44 847.54 C 361.44 847.98 299.37 848.61 286.44 848.94 C 260.80 849.60 257.60 849.16 250.99 844.13 C 246.34 840.57 242.27 831.65 241.84 824.05 C 241.65 820.74 240.99 801.37 240.37 781.05 C 238.89 732.84 240.77 453.41 242.91 400.32 C 244.21 368.42 244.91 309.97 244.91 225.55 C 244.91 195.06 245.10 193.86 250.25 189.21 C 253.25 186.50 266.36 184.84 294.39 183.64 C 318.34 182.64 318.95 182.64 323.21 184.64 C 325.94 185.95 329.45 189.10 332.61 193.04 C 335.56 196.94 339.31 200.17 343.61 202.51 C 348.24 204.97 349.35 205.51 359.84 206.11 C 362.70 206.27 366.24 206.44 370.74 206.65 C 382.40 207.19 402.52 207.50 415.44 207.32 L 433.34 207.07 C 447.34 207.07 453.19 198.19 456.92 193.60 C 460.23 189.54 464.06 185.79 465.44 185.25 C 468.25 184.17 501.29 184.94 524.94 186.63 C 545.88 188.13 551.16 190.72 555.76 201.72 C 558.12 207.37 558.36 213.72 558.96 287.49 C 559.28 325.72 560.02 364.64 560.62 373.99 C 561.81 392.68 561.97 489.21 560.88 526.76 L 560.19 552.60 L 566.12 552.89 L 567.03 527.40 C 568.03 499.51 568.20 414.23 567.18 371.49 C 566.78 354.72 566.00 311.49 565.46 275.49 C 564.52 212.91 563.95 202.26 561.31 197.24 C 555.82 186.76 547.17 182.03 530.44 180.32 C 517.92 179.05 482.13 178.72 467.35 179.46 C 463.79 179.63 458.77 182.02 456.94 183.99 C 455.67 185.38 454.24 186.99 452.86 188.67 C 449.97 192.13 446.81 195.35 443.41 198.30 C 440.53 200.63 437.08 200.40 433.72 200.55 L 395.49 200.31 L 360.00 200.08 C 355.28 200.08 351.76 200.77 346.37 197.32 C 343.22 195.21 340.36 192.69 337.87 189.83 C 332.61 183.38 329.87 181.07 324.16 178.39 C 321.72 177.04 318.95 176.40 316.16 176.54 Z M 396.40 177.68 C 391.52 177.68 386.55 177.90 380.49 178.33 C 363.55 179.54 359.41 180.58 361.49 183.07 C 362.49 184.23 368.49 184.55 394.30 184.79 L 394.30 184.79 C 435.97 185.18 432.87 185.29 433.23 183.38 C 433.72 180.80 428.46 179.56 411.79 178.31 C 406.09 177.89 401.29 177.68 396.40 177.69 Z M 396.63 235.68 C 396.27 235.65 395.91 235.76 395.63 235.98 C 394.40 237.22 394.17 257.88 395.36 260.98 C 397.52 266.57 398.89 262.35 399.24 248.98 C 399.53 238.21 399.35 236.44 397.95 235.90 C 397.53 235.73 397.08 235.65 396.63 235.66 Z M 466.87 240.54 C 465.30 240.54 456.44 254.28 456.44 256.72 C 456.44 260.07 459.13 258.59 462.65 253.28 C 469.26 243.30 470.18 240.52 466.87 240.52 Z M 332.21 260.35 C 331.31 260.35 330.94 260.96 330.94 262.02 C 330.94 263.50 333.69 265.66 341.44 270.27 C 351.07 276.01 356.44 277.92 356.44 275.60 C 356.44 274.27 350.00 269.45 341.94 264.75 C 336.69 261.68 333.70 260.28 332.21 260.35 Z M 480.46 261.74 C 479.66 261.72 478.86 261.78 478.08 261.93 C 473.42 262.80 464.00 269.18 457.79 275.65 C 451.26 282.46 433.07 305.88 421.95 321.79 C 417.25 328.52 411.67 336.03 409.55 338.47 L 405.70 342.91 L 399.32 338.86 C 378.44 325.61 373.07 322.36 365.09 318.17 C 359.81 315.40 354.93 313.53 352.98 313.53 C 345.91 313.53 342.12 320.38 344.60 328.67 C 345.90 333.01 349.60 337.22 357.66 343.39 C 360.26 345.39 368.81 352.23 376.66 358.58 C 392.66 371.58 398.56 375.74 402.94 377.30 C 413.21 380.96 422.68 375.03 440.88 353.53 C 466.94 322.71 488.28 287.83 489.25 274.45 C 489.53 270.65 489.25 267.45 488.43 266.01 C 487.08 263.48 483.88 261.84 480.43 261.74 Z M 480.52 268.85 C 480.84 268.81 481.17 268.87 481.46 269.03 C 483.33 270.19 482.46 276.68 479.46 283.95 C 470.28 305.95 430.96 359.07 416.91 368.38 L 416.91 368.38 C 408.03 374.26 405.36 373.18 380.26 353.52 C 360.46 338.03 353.91 332.21 351.92 328.35 C 350.11 324.88 350.10 321.61 351.92 320.92 C 354.24 320.03 367.92 327.43 393.19 343.32 C 397.69 346.13 402.43 348.71 403.73 349.04 C 409.42 350.47 413.95 345.90 431.02 321.52 C 443.67 303.46 459.49 283.67 466.20 277.52 C 471.35 272.81 477.84 268.98 480.60 268.85 Z M 584.33 278.70 L 584.94 313.62 C 585.34 337.01 588.94 309.24 591.04 306.26 C 590.47 306.41 590.44 302.15 590.44 299.01 C 590.40 297.16 590.48 295.30 590.67 293.46 C 589.50 292.42 588.58 291.12 587.99 289.67 C 587.08 287.67 584.25 274.02 584.33 278.67 Z M 309.33 316.63 C 307.57 316.63 306.33 316.92 305.89 317.63 C 304.89 319.27 306.82 320.68 312.13 322.13 C 322.35 324.93 327.35 321.76 317.95 318.45 C 315.18 317.42 312.28 316.81 309.33 316.65 Z M 580.52 334.57 C 583.80 331.94 581.62 342.84 582.03 413.52 C 582.39 474.82 583.19 513.78 584.72 538.21 C 586.31 535.21 591.01 535.92 591.01 535.92 L 591.15 535.57 C 589.48 534.88 588.93 509.14 587.97 398.77 L 587.47 342.52 C 580.65 339.92 580.47 334.57 580.47 334.57 Z M 477.06 338.14 C 472.29 338.20 471.95 338.60 471.95 340.02 C 471.95 341.44 472.83 342.18 475.45 342.65 C 480.60 343.12 485.78 343.28 490.95 343.15 C 500.72 343.05 502.95 342.75 502.95 341.56 C 502.95 339.46 496.73 338.38 483.45 338.18 C 480.72 338.18 478.64 338.12 477.06 338.18 Z M 459.74 360.00 C 459.26 360.00 459.04 360.42 458.74 361.12 C 457.99 363.06 462.32 367.27 468.42 370.55 C 472.60 372.80 473.08 372.87 474.03 371.34 C 474.98 369.81 469.62 365.12 463.53 361.70 C 461.39 360.50 460.33 359.96 459.71 360.00 Z M 343.74 360.06 C 342.82 360.35 342.02 360.92 341.44 361.69 C 338.28 365.04 331.10 380.29 331.81 382.13 C 332.81 384.75 334.74 383.13 338.66 376.45 C 343.73 367.77 346.00 361.72 344.66 360.39 C 344.43 360.12 344.08 360.00 343.73 360.06 Z M 410.51 389.52 C 409.45 389.53 408.48 390.15 408.01 391.10 C 407.20 393.24 407.24 403.02 408.08 403.86 C 410.64 406.42 412.41 402.37 412.41 393.86 C 412.41 390.24 412.09 389.49 410.51 389.49 Z M 314.00 447.61 C 299.59 447.61 292.49 454.10 292.49 467.31 C 292.66 478.55 300.05 488.39 310.79 491.70 C 313.15 492.39 320.79 492.95 328.29 492.98 C 340.74 492.98 341.61 493.15 342.03 494.98 C 345.37 509.82 345.93 521.50 344.57 548.48 C 342.46 590.48 341.43 645.75 342.46 661.96 C 344.80 698.83 353.09 713.13 375.46 719.02 C 381.14 720.51 385.56 720.66 410.76 720.15 L 439.57 719.57 L 438.87 735.34 C 438.09 753.18 438.93 757.95 443.14 759.55 C 446.21 760.72 452.78 758.03 456.34 754.16 L 458.72 751.58 L 463.87 757.03 C 470.53 764.03 472.49 764.13 479.74 757.50 L 485.19 752.50 L 490.67 757.98 L 490.67 757.98 C 497.97 765.28 501.94 765.26 506.50 757.89 L 508.72 754.30 L 513.37 758.88 C 518.88 764.30 522.46 764.88 525.11 760.88 C 526.65 758.53 526.82 753.40 526.95 706.13 C 527.03 677.44 526.78 650.13 526.40 645.44 C 524.77 625.11 518.40 615.32 503.95 610.88 C 499.95 609.65 485.35 607.71 478.70 607.51 C 477.17 607.51 477.08 596.29 478.40 572.51 C 480.82 529.13 480.69 508.78 477.91 495.01 L 477.30 492.01 L 487.63 492.01 C 499.49 492.01 504.26 490.39 511.39 483.95 C 516.66 479.18 518.46 475.75 518.46 470.38 C 518.46 461.80 512.03 453.38 503.00 450.01 C 498.36 448.31 492.28 448.17 409.00 447.89 C 360.00 447.73 317.25 447.60 314.00 447.60 Z M 323.38 453.80 C 331.93 453.80 344.18 454.03 362.00 454.39 C 390.05 454.96 430.10 455.16 451.00 454.85 C 490.62 454.25 497.33 454.69 504.44 458.36 C 506.81 459.79 508.81 461.76 510.28 464.11 C 514.54 471.41 511.16 478.34 500.99 483.11 C 496.71 485.11 494.46 485.48 485.24 485.48 C 476.93 485.48 474.50 485.19 474.50 484.16 C 474.50 483.42 472.67 480.27 470.44 477.16 L 466.38 471.50 L 472.81 471.50 C 476.03 471.52 479.26 471.31 482.45 470.86 C 486.00 470.15 487.56 467.79 485.39 466.42 C 483.71 465.35 445.80 465.27 372.57 466.17 C 326.01 466.74 318.23 467.04 317.74 468.31 C 317.03 470.17 320.11 472.50 323.29 472.50 C 327.54 472.50 332.36 475.58 335.47 480.27 C 337.14 482.79 338.47 485.22 338.47 485.67 C 338.47 486.67 316.89 486.61 313.47 485.57 C 304.65 482.88 299.69 477.06 298.82 468.36 C 298.37 463.83 298.66 462.46 300.67 459.50 C 303.61 455.18 304.54 453.83 323.36 453.78 Z M 337.44 472.48 L 397.38 472.75 L 457.31 473.02 L 461.15 476.12 C 466.29 480.26 470.15 488.20 472.15 498.52 C 473.56 505.90 473.66 511.52 472.93 541.02 C 472.47 559.72 472.08 582.31 472.05 591.22 L 472.05 607.41 L 466.05 607.93 C 462.74 608.22 451.72 608.73 441.55 609.07 C 420.11 609.78 414.80 610.59 408.90 614.07 C 400.02 619.27 397.52 628.13 398.47 651.07 C 399.15 667.67 398.24 688.07 396.47 695.07 C 394.70 702.07 390.56 710.39 387.66 712.66 L 387.66 712.66 C 386.04 713.81 384.11 714.45 382.12 714.50 C 378.46 714.42 369.35 711.50 366.79 709.50 C 361.79 705.68 359.05 702.50 356.49 697.50 C 348.86 682.50 347.66 665.93 349.44 600.32 C 351.80 513.47 351.78 516.86 350.12 505.89 C 348.20 493.21 345.38 484.58 340.92 477.79 Z M 411.95 486.67 C 396.14 486.67 381.59 487.86 378.42 489.56 C 377.42 490.04 376.71 490.96 376.49 492.04 C 376.49 493.28 380.75 493.39 406.74 492.87 C 435.00 492.29 440.49 491.76 440.49 489.60 C 440.49 487.70 436.21 487.14 418.77 486.75 C 416.49 486.69 414.21 486.67 411.95 486.67 Z M 371.66 524.84 C 370.13 524.79 368.60 525.00 367.14 525.46 C 363.70 526.78 364.14 528.82 368.08 529.61 C 371.46 530.13 374.91 529.92 378.20 529.00 C 378.94 528.70 379.43 527.99 379.45 527.19 C 379.45 525.86 375.37 524.89 371.61 524.88 Z M 400.66 525.53 C 393.34 525.59 392.23 525.99 391.86 526.96 C 390.60 530.23 393.19 530.90 409.72 531.55 C 443.81 532.89 453.72 532.41 454.26 529.40 C 454.34 528.36 453.74 527.40 452.77 527.01 C 451.77 526.59 437.82 526.01 421.77 525.76 C 411.77 525.59 405.08 525.50 400.69 525.54 Z M 369.22 552.59 C 366.43 552.53 365.55 552.88 365.22 553.82 C 364.56 555.54 365.96 557.03 369.00 557.82 C 371.67 558.53 379.76 557.58 380.95 556.43 C 382.79 554.65 379.65 553.25 372.73 552.76 C 371.26 552.67 370.12 552.61 369.19 552.59 Z M 433.16 553.74 C 428.49 553.74 423.23 553.84 417.36 554.05 C 401.27 554.58 395.05 555.14 393.74 556.15 C 392.06 557.46 392.08 557.60 393.97 559.15 C 395.86 560.70 399.75 560.69 426.71 560.36 C 449.92 560.08 457.76 559.67 458.71 558.71 C 461.99 555.38 453.33 553.71 433.16 553.78 Z M 441.76 590.15 C 428.51 590.15 411.28 590.60 406.59 591.38 C 399.35 592.60 398.98 592.80 399.87 595.11 C 400.47 596.66 402.87 596.74 428.75 596.11 C 444.27 595.73 457.75 595.18 458.75 594.90 C 461.43 594.12 460.83 591.66 457.75 590.80 C 456.19 590.37 449.68 590.17 441.73 590.15 Z M 374.43 590.52 C 367.92 590.52 365.77 592.36 368.73 595.41 C 369.63 596.35 371.73 596.53 376.39 596.07 C 383.51 595.36 384.48 595.01 384.48 593.07 C 384.48 591.60 380.18 590.50 374.43 590.50 Z M 589.05 594.00 L 583.37 597.66 L 582.28 598.01 C 581.08 598.39 583.58 598.16 583.14 599.95 C 581.82 605.23 581.20 722.80 582.31 757.54 C 584.14 814.92 584.04 849.84 582.05 857.04 C 579.38 866.64 575.47 873.66 569.62 879.29 L 564.18 885.88 L 574.31 885.88 L 577.85 880.22 C 581.41 874.52 585.74 867.32 588.09 858.54 C 589.66 852.68 589.79 847.41 589.39 805.04 C 589.14 779.18 588.96 721.96 588.99 677.87 Z M 482.94 614.06 C 493.88 614.11 496.16 614.72 501.24 616.31 C 510.37 619.18 515.62 624.00 517.87 631.57 C 521.30 643.11 521.73 652.82 521.16 704.86 C 520.85 732.86 520.43 755.86 520.21 756.09 C 519.99 756.32 517.84 754.46 515.42 752.00 C 510.30 746.78 507.59 746.37 504.28 750.31 C 503.00 751.85 501.21 754.21 500.28 755.56 L 498.69 758.00 L 493.42 752.25 C 486.47 744.67 484.33 744.60 476.79 751.74 L 471.25 757.00 L 468.60 753.86 C 467.14 752.14 464.92 749.51 463.68 748.02 C 460.75 744.53 457.60 745.21 451.75 750.60 C 447.12 754.87 444.93 755.50 444.23 752.77 C 443.99 751.77 444.17 734.60 444.64 714.52 C 446.18 648.97 443.92 632.75 431.53 620.52 L 425.94 615.00 L 451.44 614.51 C 466.71 614.22 476.38 614.04 482.94 614.06 Z M 415.00 617.78 C 416.21 617.78 417.58 618.35 420.66 619.78 C 429.52 623.84 434.25 631.69 436.87 646.78 C 437.94 652.90 438.40 663.59 438.50 684.05 C 438.57 699.83 438.50 712.87 438.29 713.05 L 438.29 713.05 C 438.11 713.21 428.18 713.67 416.23 714.05 L 394.51 714.77 L 397.51 708.93 C 403.48 697.00 403.87 694.00 404.00 660.00 C 404.07 630.40 404.17 628.82 406.20 625.00 C 407.51 622.59 409.42 620.56 411.75 619.11 C 412.74 618.45 413.86 618.00 415.04 617.81 Z M 374.47 628.72 C 373.40 628.61 372.35 629.02 371.63 629.82 C 370.63 631.03 370.69 631.62 371.99 632.92 C 373.99 634.92 382.72 635.11 384.35 633.16 C 385.98 631.21 383.88 629.79 377.89 628.99 C 376.76 628.81 375.62 628.72 374.47 628.72 Z M 484.71 637.72 C 479.90 637.72 474.78 637.87 469.86 638.23 C 456.22 639.23 453.68 640.02 454.79 642.90 C 455.69 645.20 503.05 645.26 506.01 642.97 C 507.88 641.53 507.89 641.42 506.14 640.06 C 504.39 638.70 495.27 637.80 484.70 637.77 Z M 497.37 662.59 C 481.94 662.59 460.17 663.46 458.91 664.51 C 456.57 666.45 458.91 668.32 464.28 668.74 L 464.28 668.74 C 472.16 669.36 502.57 669.27 509.45 668.60 C 515.02 668.06 515.95 667.69 515.95 666.01 C 515.95 664.55 514.95 663.84 511.95 663.17 C 510.07 662.76 504.37 662.58 497.35 662.58 Z M 464.23 690.59 C 459.06 690.59 457.09 690.91 456.23 691.59 C 452.96 694.15 455.74 695.36 467.00 696.27 C 480.32 697.35 506.00 697.67 510.34 696.81 C 512.39 696.40 513.46 695.60 513.46 694.46 C 513.46 692.46 507.98 691.86 477.46 690.87 C 471.61 690.68 467.35 690.58 464.24 690.59 Z M 467.94 705.76 C 466.94 705.76 465.86 706.89 465.66 708.95 C 465.50 710.99 464.26 712.78 462.41 713.65 C 460.16 714.94 459.46 716.07 459.46 718.37 C 459.46 721.90 461.39 723.37 469.32 725.95 C 475.72 728.01 474.82 729.03 465.74 730.00 C 460.51 730.57 459.46 731.00 459.46 732.54 C 459.46 733.77 460.40 734.61 462.21 735.01 C 466.94 736.01 467.46 736.34 467.46 738.01 C 467.57 739.27 467.93 740.49 468.52 741.61 C 469.98 744.32 472.46 742.30 472.46 738.40 C 472.46 736.01 473.15 735.26 476.96 733.58 C 480.77 731.90 481.46 731.18 481.46 728.58 C 481.46 724.92 478.34 722.24 472.00 720.47 C 469.50 719.77 467.46 718.82 467.46 718.36 C 467.46 717.90 469.72 717.22 472.46 716.86 C 475.20 716.50 477.70 715.86 477.98 715.39 C 478.63 714.34 474.46 711.46 472.28 711.46 C 471.16 711.46 470.46 710.51 470.28 708.71 C 470.00 706.74 469.00 705.78 467.93 705.84 Z M 501.82 713.83 C 499.29 713.83 496.33 714.42 494.61 715.83 C 493.52 716.69 493.61 717.13 495.11 718.23 L 495.11 718.23 C 496.35 719.14 498.26 719.36 500.95 718.92 C 505.77 718.12 506.46 717.77 506.46 716.04 C 506.46 714.65 504.35 713.92 501.82 713.88 Z M 497.34 729.00 C 496.38 728.97 495.43 729.03 494.48 729.18 C 490.94 729.89 489.38 732.25 491.55 733.63 L 491.55 733.63 C 493.37 734.78 512.16 734.81 512.88 733.63 C 513.18 733.14 512.88 732.26 512.15 731.68 C 510.63 730.42 502.38 729.05 497.34 728.98 Z M 409.34 783.59 C 396.49 783.69 386.12 793.65 386.12 807.54 C 386.12 817.71 391.64 825.97 400.12 828.54 C 411.74 832.03 424.45 822.43 427.47 807.87 C 429.62 797.55 424.62 786.81 416.64 784.60 C 414.25 783.93 411.78 783.59 409.30 783.60 Z M 411.65 790.59 C 413.55 790.64 415.38 791.35 416.82 792.59 C 424.51 798.59 421.30 814.40 411.11 820.59 C 406.97 823.11 403.52 823.01 399.37 820.24 C 395.27 817.37 392.73 812.77 392.48 807.78 C 392.48 803.53 395.05 797.22 397.29 795.99 C 404.12 792.23 408.37 790.53 411.65 790.59 Z M 149.89 815.55 C 148.07 815.55 146.11 816.65 143.99 818.89 C 138.23 825.00 133.46 842.46 133.43 857.40 L 133.43 864.00 L 129.34 859.23 C 119.88 848.23 111.88 849.12 112.16 861.23 C 112.27 865.72 113.16 868.60 116.62 875.43 C 118.27 878.87 119.73 882.40 121.00 886.00 L 131.00 886.00 C 130.78 885.97 130.57 885.93 130.36 885.87 C 125.25 883.96 115.09 858.51 119.36 858.51 C 120.82 858.51 134.49 873.69 136.21 877.22 C 137.93 880.75 139.46 881.73 141.40 880.54 C 142.40 879.90 142.40 879.01 141.40 875.88 C 139.34 869.75 139.85 849.73 142.35 839.25 C 144.43 830.53 147.77 822.51 149.35 822.51 C 151.80 822.51 156.61 854.43 156.83 872.21 L 156.83 885.92 L 156.83 885.92 L 162.13 885.92 C 163.19 885.92 160.32 885.77 160.32 885.66 C 160.32 879.66 166.80 860.66 169.53 858.95 C 170.82 858.16 170.73 860.64 168.85 878.71 L 168.07 885.98 L 174.07 885.98 L 175.12 877.21 C 175.59 873.21 175.97 866.21 175.97 861.63 C 175.97 854.54 175.68 853.09 174.03 851.88 C 171.03 849.71 169.57 850.13 165.43 854.28 L 161.62 858.08 L 160.98 849.53 C 160.16 838.53 157.75 823.89 156.32 821.12 C 154.39 817.38 152.27 815.51 149.92 815.50 Z M 954.72 820.68 C 949.42 820.68 943.37 826.68 938.48 836.95 C 934.71 844.85 931.48 855.80 931.48 860.52 C 931.48 862.52 931.06 862.24 928.63 858.46 C 923.63 850.69 919.16 848.19 915.02 850.90 C 909.48 854.53 909.21 867.07 914.44 878.23 L 917.38 887.45 L 917.38 887.45 L 926.53 887.06 C 925.30 886.58 924.53 882.62 923.04 880.42 C 921.39 877.86 920.01 875.13 918.91 872.29 C 917.35 867.90 916.98 857.95 918.33 857.11 C 919.23 856.56 922.04 859.41 927.19 866.11 C 929.35 869.03 930.79 872.42 931.40 876.00 C 931.99 879.19 932.98 885.35 933.61 886.10 C 934.08 886.67 934.14 887.02 933.61 887.21 L 936.02 887.46 L 936.02 887.46 L 936.67 872.67 C 937.49 854.04 943.34 836.94 950.86 829.67 C 954.15 826.48 954.35 826.43 954.98 828.40 C 955.61 830.37 951.52 863.40 949.40 873.07 C 947.33 882.54 949.49 884.52 953.66 876.95 C 957.01 870.85 964.26 863.33 966.40 863.73 C 968.90 864.21 968.95 870.73 966.50 878.08 L 964.36 887.46 L 964.36 887.46 L 970.79 887.22 L 970.79 887.22 L 972.74 879.17 C 974.54 871.72 975.51 864.30 972.84 860.78 C 971.08 858.44 970.05 858.02 966.17 858.07 C 963.11 858.07 960.87 858.78 959.43 860.07 L 957.19 862.00 L 957.67 858.50 C 957.94 856.58 958.99 849.25 960.01 842.21 C 961.66 830.77 961.70 828.97 960.40 825.21 C 959.10 821.45 958.60 820.97 955.24 820.69 C 955.07 820.68 954.90 820.68 954.73 820.69 Z" fill="#efca87" fill-rule="nonzero" id="path2837" node-id="21" stroke="none" target-height="730.92004" target-width="862.30945" target-x="112.16" target-y="156.54"></path><path d="M 1035.33 891.00 C 1035.33 902.83 937.33 913.73 779.53 919.45 C 621.73 925.17 428.93 924.82 276.22 918.53 C 123.51 912.24 35.00 901.00 45.06 889.13 L 539.81 891.00 Z" fill="#f9f1cb" fill-rule="nonzero" id="path10665" node-id="22" stroke="none" target-height="34.36377" target-width="991.0181" target-x="44.311848" target-y="889.13"></path><path d="M 908.71 192.59 C 907.95 192.59 907.06 192.59 905.97 192.72 C 895.90 193.56 875.82 205.41 866.97 215.72 L 863.58 219.67 L 859.05 217.00 C 853.72 213.87 850.54 214.00 848.61 217.48 C 846.52 221.23 848.48 226.93 854.93 235.93 L 860.40 243.54 L 857.85 244.54 C 856.79 244.99 855.68 245.33 854.55 245.54 C 854.13 245.54 852.87 246.54 851.75 247.79 C 847.75 252.27 845.50 277.93 847.33 298.95 C 847.95 306.05 848.33 312.01 848.13 312.18 C 847.36 312.95 818.31 272.98 805.86 254.04 C 793.96 235.94 787.25 231.85 771.03 232.76 C 760.47 233.36 753.10 236.76 740.19 246.88 L 720.71 262.17 L 711.00 269.79 L 710.31 266.43 C 709.07 260.35 703.16 257.82 697.52 260.95 C 695.31 262.17 694.90 262.08 693.27 260.01 C 692.27 258.73 691.64 257.20 691.46 255.59 C 691.46 249.93 684.81 241.53 680.33 241.53 C 678.49 241.53 678.42 241.10 679.16 235.28 C 679.67 230.71 679.93 226.12 679.96 221.53 C 679.96 215.27 679.57 213.48 677.63 210.75 C 668.19 197.53 648.63 205.59 638.63 226.80 C 636.36 231.63 635.63 232.49 633.92 231.97 C 624.54 229.07 624.00 229.10 617.56 232.53 C 610.43 236.33 598.09 248.68 593.64 256.46 L 590.73 261.56 C 590.73 261.56 586.08 267.33 584.56 273.67 C 584.42 274.28 584.33 274.90 584.28 275.52 L 584.28 278.71 C 584.80 283.36 587.03 287.65 587.94 289.71 C 589.35 292.47 590.92 295.14 592.65 297.71 C 594.21 300.20 594.19 300.45 592.35 302.12 C 591.71 302.69 584.69 312.07 584.69 312.07 L 581.57 318.25 C 577.26 326.76 576.18 331.40 579.42 336.07 C 585.90 345.42 591.67 342.57 591.67 342.57 C 594.00 342.57 599.57 341.41 604.06 339.99 C 610.53 337.93 613.80 336.12 619.97 331.17 L 627.73 324.95 L 635.87 331.01 C 640.34 334.34 645.04 337.76 646.31 338.60 L 648.62 340.12 L 644.87 344.60 C 640.11 350.29 628.41 367.69 625.39 373.60 C 618.80 386.46 616.03 403.08 618.39 415.60 C 619.96 423.88 635.26 452.27 647.57 469.71 C 648.51 471.05 647.16 473.41 639.88 483.21 C 623.88 504.72 616.52 512.66 597.28 528.87 L 597.28 528.87 C 594.97 530.87 592.85 532.50 591.81 533.22 C 591.46 533.47 586.25 533.22 584.67 536.22 C 584.76 537.77 584.86 539.28 584.96 540.73 C 585.60 549.67 586.06 549.26 574.20 550.25 L 566.06 550.93 L 566.06 550.93 L 560.13 550.64 L 557.68 551.26 C 552.30 552.61 553.03 559.03 559.16 564.35 C 562.35 567.13 562.59 567.60 560.80 567.60 C 557.45 568.04 554.14 568.71 550.89 569.60 C 534.99 573.67 527.78 578.77 530.25 584.20 C 531.57 587.11 536.85 589.60 541.68 589.60 C 543.89 589.55 546.00 590.49 547.44 592.16 C 549.51 594.17 551.76 595.99 554.17 597.58 L 558.50 600.45 L 558.50 600.45 C 558.50 600.45 562.93 603.20 565.69 603.85 C 575.40 605.60 582.46 602.19 588.99 597.76 L 592.99 593.43 C 597.45 588.58 604.40 578.43 604.40 576.82 C 604.40 576.13 606.26 575.93 609.65 576.26 C 614.60 576.75 615.39 576.48 623.32 571.69 C 634.18 565.12 644.33 557.45 653.62 548.80 C 657.55 545.12 660.43 543.00 660.01 544.10 C 658.13 549.10 657.22 557.85 657.70 566.21 C 658.78 584.96 672.63 616.70 680.41 618.21 C 683.12 618.75 683.30 619.12 683.91 625.42 C 685.05 637.08 689.43 664.70 691.91 675.94 C 694.69 688.43 697.31 694.48 701.45 697.94 L 704.36 700.39 L 699.41 719.72 C 690.96 752.72 686.25 778.72 684.78 800.54 C 684.21 809.03 683.63 811.71 681.78 814.54 C 678.47 819.59 676.91 826.36 678.25 829.79 C 679.14 832.04 683.35 835.59 686.57 836.79 C 686.94 836.93 686.20 840.65 684.91 845.07 C 681.70 856.12 679.04 873.93 679.72 879.74 L 680.29 884.54 L 200.00 884.54 C 200.00 884.54 118.27 885.13 113.06 885.29 C 105.83 885.51 94.50 885.70 81.77 885.78 L 42.00 886.00 C 42.00 886.00 35.44 886.16 35.44 888.50 C 35.44 890.84 42.00 891.00 42.00 891.00 L 77.50 891.53 L 77.50 891.53 C 97.03 891.82 321.90 892.14 577.22 892.24 C 993.22 892.41 1041.59 892.24 1042.97 890.89 C 1047.61 886.25 1044.70 885.78 1006.39 885.00 L 970.79 884.27 L 970.79 884.27 L 964.35 884.51 L 872.22 884.51 L 872.92 875.26 C 873.31 870.18 874.46 859.71 875.49 852.01 C 877.97 833.47 878.25 819.45 876.18 816.51 C 873.77 813.06 865.18 806.98 859.18 804.51 L 853.72 802.25 L 857.12 797.52 C 863.20 789.00 861.29 784.58 849.00 779.00 C 845.07 777.21 841.15 774.68 840.29 773.38 C 839.43 772.08 833.20 764.27 826.43 756.02 C 810.06 736.02 805.27 728.48 793.01 703.12 L 782.66 681.70 L 789.00 668.84 C 792.48 661.78 797.38 651.05 799.88 645.00 C 802.38 638.95 807.78 627.35 811.88 619.21 C 816.21 610.55 819.98 601.62 823.16 592.48 L 826.98 580.48 L 831.57 580.48 C 838.63 580.48 847.51 575.48 856.57 566.53 C 868.78 554.41 876.74 538.53 880.01 519.80 C 884.78 492.39 876.67 460.37 857.72 431.90 C 851.35 422.32 849.28 418.99 832.06 390.46 C 820.06 370.63 809.51 352.11 809.51 350.97 C 809.51 350.58 811.94 352.49 814.91 355.21 C 833.79 372.46 850.99 381.58 865.01 381.76 C 876.77 381.91 883.73 376.76 889.92 363.35 C 894.44 353.57 897.79 340.58 900.48 322.43 C 903.35 303.04 904.14 286.36 902.56 278.31 C 901.19 271.36 897.16 260.93 894.81 258.31 C 893.46 256.79 893.81 256.10 898.75 251.12 C 902.22 247.43 905.18 243.28 907.55 238.80 C 910.45 232.94 910.93 230.94 910.97 224.49 C 910.97 218.49 910.57 216.24 908.80 213.25 C 906.63 209.59 906.63 209.49 908.53 208.48 C 911.01 207.15 915.53 200.56 915.53 198.26 C 915.26 196.77 914.52 195.41 913.41 194.37 C 912.25 193.07 910.54 192.40 908.80 192.56 Z M 906.40 198.68 C 906.65 198.66 906.89 198.66 907.14 198.68 C 909.43 198.97 909.39 199.11 905.47 203.84 C 903.25 206.51 901.47 209.18 901.47 209.78 C 901.96 211.67 902.67 213.50 903.59 215.22 C 907.71 223.74 904.98 234.32 895.33 247.22 C 893.17 250.11 891.08 252.45 890.69 252.45 C 888.87 251.64 887.15 250.63 885.55 249.45 C 881.29 246.56 872.94 243.45 869.38 243.45 C 866.57 243.45 852.09 222.45 853.75 220.83 C 854.37 220.22 860.29 223.13 862.10 224.93 C 862.77 225.61 866.16 226.72 869.63 227.40 C 872.71 227.96 875.73 228.85 878.63 230.04 C 881.52 231.54 886.45 237.37 886.45 239.29 C 886.45 240.92 889.40 240.74 890.04 239.06 C 890.68 237.38 888.04 230.77 885.66 228.06 C 883.28 225.35 876.57 222.47 872.66 222.44 C 870.87 222.44 869.41 222.01 869.41 221.50 C 869.41 220.03 878.30 212.50 886.20 207.33 C 893.80 202.33 902.37 198.64 906.37 198.58 Z M 665.40 210.12 C 671.21 210.06 674.40 214.81 674.40 223.67 C 674.32 252.67 650.45 296.67 619.92 323.98 C 613.70 329.55 611.19 331.05 603.98 333.55 C 593.80 337.08 588.26 337.37 585.42 334.55 C 584.29 333.40 583.59 331.90 583.42 330.30 C 583.42 326.96 586.82 320.00 592.56 311.44 L 597.67 303.83 L 601.93 304.31 C 613.25 305.58 629.04 292.02 638.93 272.55 C 642.93 264.66 647.42 250.81 647.42 246.40 C 647.42 243.60 646.62 241.71 644.31 239.07 C 641.37 235.73 641.31 235.34 642.49 232.29 C 646.40 222.53 655.49 212.47 661.90 210.69 C 663.03 210.36 664.21 210.18 665.39 210.15 Z M 623.85 235.00 C 624.85 235.00 624.45 236.87 623.08 242.00 C 619.90 253.87 612.34 264.06 601.17 271.52 C 591.41 278.04 590.50 277.00 595.98 265.52 C 601.86 253.62 610.71 243.45 621.69 236.00 C 622.33 235.51 623.07 235.17 623.85 235.00 Z M 774.17 237.70 C 779.49 237.70 785.04 239.08 788.45 241.51 C 792.06 244.08 802.45 256.72 804.94 261.51 C 809.88 271.11 830.41 299.93 842.18 313.80 L 849.65 322.59 L 852.00 333.32 C 854.92 346.41 856.05 349.32 857.66 347.67 C 858.54 346.79 858.41 343.92 857.14 335.77 C 854.00 315.18 853.00 300.87 853.00 277.30 C 853.00 249.59 852.73 250.43 862.59 249.71 C 880.00 248.45 891.00 257.00 896.00 275.66 C 901.06 294.66 891.88 350.76 881.00 367.11 C 873.24 378.78 860.40 379.25 842.00 368.52 C 831.07 362.13 804.91 340.75 802.49 336.23 C 801.28 333.97 801.49 333.10 804.36 327.37 C 805.83 324.33 807.61 321.44 809.66 318.76 C 811.25 317.04 811.47 316.21 810.60 315.33 C 808.74 313.48 804.80 315.87 801.13 321.08 L 797.89 325.68 L 796.47 322.35 C 795.69 320.52 794.05 315.65 792.83 311.53 C 790.41 303.37 788.11 301.60 787.55 307.46 C 786.21 321.56 815.98 380.46 843.69 418.46 C 846.27 422.01 848.38 425.23 848.38 425.62 C 849.73 428.51 851.27 431.31 853.00 434.00 C 863.39 451.56 868.69 463.93 872.55 479.52 C 875.90 493.08 875.95 514.46 872.66 526.02 C 867.00 545.89 856.66 560.87 840.58 572.37 C 837.42 574.63 835.06 575.52 832.22 575.52 C 828.40 575.52 828.29 575.42 828.97 572.77 C 833.66 554.38 835.58 531.68 833.54 518.84 C 831.89 508.52 827.54 498.17 822.17 492.01 L 817.86 487.01 L 818.74 475.07 C 819.32 467.93 819.27 460.75 818.59 453.61 C 818.03 448.38 817.73 443.93 817.93 443.72 C 818.13 443.51 821.49 449.79 825.37 457.72 C 837.37 482.12 841.50 498.46 841.45 521.54 C 841.44 528.39 840.95 535.22 840.00 542.00 C 839.22 546.38 838.76 550.14 839.00 550.37 C 840.25 551.62 842.48 549.08 843.88 544.85 C 847.64 533.42 848.53 513.85 845.98 498.91 C 842.56 478.80 831.34 452.78 816.98 431.60 C 813.15 425.96 809.15 419.93 808.08 418.19 C 807.01 416.45 804.08 412.32 801.43 409.01 L 796.71 403.01 L 795.61 389.52 C 795.00 382.11 794.24 372.66 793.91 368.52 C 792.91 355.92 789.10 347.64 782.16 342.93 C 777.73 339.93 768.71 337.52 761.80 337.52 C 758.90 337.52 756.51 337.30 756.51 337.04 C 757.70 335.03 759.04 333.11 760.51 331.29 C 769.79 319.10 767.75 313.04 751.51 304.59 C 743.05 300.19 724.46 292.52 722.27 292.52 C 721.47 292.52 719.98 290.66 718.95 288.38 C 715.84 281.48 713.81 279.52 709.76 279.52 C 706.16 279.52 706.18 279.52 714.58 273.73 C 719.22 270.54 729.58 262.73 737.67 256.35 C 753.00 244.21 760.00 240.13 769.00 238.24 C 770.69 237.90 772.41 237.72 774.13 237.72 Z M 630.57 237.95 C 631.20 237.89 633.57 239.10 636.09 240.77 C 640.73 243.89 640.94 244.24 640.86 248.52 C 640.60 262.17 624.09 288.46 611.11 295.90 C 604.06 299.95 602.74 300.03 599.54 296.61 C 596.97 293.85 591.64 282.81 592.54 282.16 C 592.75 282.01 596.04 280.38 599.84 278.55 C 613.36 272.03 627.00 255.07 629.08 242.23 C 629.41 240.16 630.03 238.23 630.45 237.99 C 630.45 237.99 630.51 237.99 630.56 237.99 Z M 677.92 245.50 C 679.92 245.50 687.69 255.13 686.27 255.84 C 681.15 258.38 679.65 259.62 678.19 262.52 C 675.54 267.80 675.87 273.09 678.98 275.12 C 681.23 276.60 686.44 284.12 686.44 285.84 C 686.44 286.79 681.35 286.54 678.67 285.47 C 675.83 284.02 673.09 282.37 670.48 280.54 L 664.56 276.54 L 668.94 267.29 C 671.31 262.26 673.35 257.09 675.04 251.79 C 676.04 248.34 677.29 245.53 677.92 245.53 Z M 686.00 262.65 C 686.21 262.64 686.42 262.64 686.63 262.65 C 689.37 263.04 690.18 267.19 688.36 271.58 C 686.90 275.09 686.36 275.15 683.51 272.09 C 681.38 269.83 681.35 269.55 682.82 266.03 C 683.89 263.46 684.63 262.61 686.00 262.61 Z M 701.00 265.56 C 702.33 265.56 703.53 265.86 704.00 266.56 C 705.08 268.31 702.50 273.16 699.85 274.37 C 698.30 275.03 696.65 275.42 694.97 275.50 C 692.58 275.50 692.58 275.50 694.09 271.75 C 694.79 269.89 695.86 268.19 697.23 266.75 C 698.34 265.99 699.65 265.57 701.00 265.56 Z M 662.67 280.48 L 667.13 284.59 C 673.13 290.09 679.22 292.71 685.21 292.32 C 689.47 292.05 690.08 291.69 691.37 288.77 C 692.77 285.61 692.97 285.52 699.00 285.52 C 702.09 285.54 705.18 285.34 708.24 284.91 C 711.13 284.33 711.44 284.59 713.98 289.66 C 715.46 292.61 718.07 296.26 718.10 298.36 C 718.10 300.85 717.56 301.01 715.60 300.73 C 710.87 300.07 709.07 300.79 704.45 303.23 C 701.25 304.91 698.02 307.56 696.72 309.57 C 695.42 311.58 694.66 302.21 692.11 305.21 C 691.47 305.96 691.53 318.73 690.77 322.38 C 689.06 330.60 685.77 337.30 682.24 339.88 C 678.34 342.71 670.24 343.03 663.67 340.60 C 657.67 338.37 654.79 336.73 641.17 327.66 L 631.39 321.16 L 635.27 317.09 C 642.91 308.85 649.85 299.98 656.00 290.57 Z M 723.92 298.21 C 724.32 298.12 725.00 298.44 726.25 299.09 C 727.73 299.87 734.57 303.09 741.44 306.34 C 748.31 309.59 755.44 313.44 757.26 315.00 C 761.32 318.44 761.13 319.66 754.92 329.89 C 752.46 333.95 750.44 337.72 750.44 338.27 C 750.44 340.35 753.36 341.53 761.03 342.55 C 772.75 344.12 777.79 346.05 781.81 350.55 C 786.28 355.49 787.26 359.11 788.44 375.06 C 788.97 382.21 789.66 389.97 789.98 392.31 C 790.30 394.65 790.18 396.56 789.71 396.56 C 789.24 396.56 786.63 394.26 783.90 391.45 C 781.17 388.64 774.56 382.56 769.22 377.92 C 757.75 367.99 753.34 362.05 742.92 342.56 C 738.66 334.56 733.49 325.50 731.42 322.37 C 728.11 317.37 727.73 316.14 728.18 312.17 C 728.63 308.20 728.35 307.32 725.81 304.79 C 724.06 303.05 723.06 301.10 723.25 299.79 C 723.39 298.79 723.52 298.31 723.92 298.22 Z M 714.55 306.56 C 719.19 306.50 723.20 308.10 722.17 310.77 C 721.78 311.77 719.09 312.77 714.26 313.53 C 711.28 313.96 708.34 314.60 705.45 315.46 C 703.72 316.28 700.45 315.73 700.45 314.64 C 700.45 313.22 702.99 310.64 706.45 308.64 C 708.93 307.28 711.73 306.57 714.56 306.58 Z M 659.00 317.38 C 657.59 317.42 656.23 317.90 655.12 318.77 C 653.69 319.83 653.59 320.61 654.49 323.83 C 655.07 325.94 656.09 327.90 657.49 329.58 C 659.97 332.07 661.26 332.02 664.11 329.35 C 669.11 324.63 664.55 317.27 659.00 317.35 Z M 721.84 318.38 C 723.72 318.55 725.59 322.16 736.67 343.05 C 741.62 352.40 747.37 362.53 749.43 365.55 C 753.60 371.66 762.03 379.97 773.52 389.28 C 783.91 397.70 797.52 412.28 803.88 422.01 C 808.75 429.37 809.35 430.93 811.03 440.55 C 813.65 455.49 813.65 482.48 811.03 487.81 C 807.45 495.10 796.41 501.50 782.93 504.08 C 779.61 504.77 776.24 505.26 772.86 505.55 C 770.71 505.55 770.57 505.29 771.45 502.98 C 772.70 499.68 772.70 490.42 771.45 487.12 C 770.92 485.71 768.65 482.58 766.45 480.12 L 762.39 475.71 L 760.39 460.37 C 759.29 451.92 757.24 440.29 755.82 434.52 C 751.82 418.37 745.88 404.52 742.82 404.52 C 740.89 404.52 741.07 407.09 743.47 413.39 C 747.15 423.08 752.30 445.74 754.30 461.04 C 756.16 475.27 757.76 481.52 759.53 481.52 C 759.97 481.52 761.58 483.17 763.12 485.19 C 765.53 488.34 765.99 490.03 766.42 497.19 L 766.42 497.19 L 766.92 505.52 L 758.42 505.42 C 749.16 505.32 740.20 503.80 728.70 500.42 L 721.29 498.22 L 722.06 491.63 C 722.47 488.01 722.78 474.47 722.72 461.55 C 722.53 418.71 718.46 399.30 701.72 361.82 C 701.41 361.13 702.31 360.07 703.72 359.42 C 708.27 357.35 709.40 348.57 706.72 336.25 C 706.15 333.65 706.29 333.49 708.66 334.09 C 716.66 336.09 719.38 328.49 713.11 321.80 L 711.01 319.55 L 714.43 319.45 C 716.43 319.38 718.42 319.10 720.36 318.63 C 720.81 318.46 721.30 318.37 721.78 318.37 L 721.78 318.37 Z M 697.00 319.52 C 698.49 319.52 707.21 324.58 708.87 326.41 C 709.87 327.57 710.36 328.52 709.87 328.49 C 707.68 328.41 696.46 322.00 696.46 320.82 C 696.44 320.10 696.68 319.52 697.00 319.52 Z M 696.44 326.72 C 696.53 326.71 696.62 326.71 696.71 326.72 C 698.29 327.25 702.58 344.87 702.23 349.40 C 702.08 351.28 701.49 352.98 700.90 353.17 C 699.52 353.62 696.33 350.03 693.46 344.79 L 691.17 340.60 L 693.31 335.60 C 694.36 333.34 695.09 330.93 695.46 328.46 C 695.46 327.35 695.85 326.67 696.46 326.68 Z M 653.90 342.72 L 657.43 344.52 C 659.96 345.74 662.57 346.77 665.25 347.60 C 668.52 348.60 669.39 349.26 668.91 350.46 C 665.91 358.06 662.32 370.92 662.16 374.87 C 662.00 378.82 662.35 380.03 664.46 381.75 C 666.57 383.47 667.86 383.75 675.84 383.16 L 684.72 382.54 L 684.18 385.79 C 683.88 387.58 682.82 394.10 681.80 400.29 C 680.78 406.48 679.72 411.54 679.43 411.54 C 679.14 411.54 675.53 410.44 671.43 409.09 C 663.95 406.64 661.62 406.89 662.82 410.02 C 663.62 412.11 670.90 415.33 676.00 415.84 C 679.69 416.21 680.00 416.47 680.27 419.64 C 680.43 421.51 681.89 429.89 683.52 438.26 C 686.89 455.16 687.41 472.51 685.08 489.58 C 683.63 499.78 682.48 502.58 673.67 517.58 C 668.97 525.58 666.06 528.96 655.52 538.85 C 641.80 551.73 626.32 563.78 617.40 568.54 C 614.26 570.21 611.02 571.54 610.19 571.54 C 607.19 571.54 597.66 560.77 594.09 553.32 C 588.72 542.10 588.69 541.45 593.44 538.76 C 605.17 532.12 628.00 509.76 639.97 493.13 C 654.19 473.40 658.97 468.56 665.65 467.02 C 669.65 466.10 671.09 463.94 668.53 462.57 C 665.97 461.20 660.64 462.49 655.81 465.46 L 652.66 467.40 L 641.56 449.10 C 635.46 439.04 630.47 430.23 630.47 429.54 C 630.11 427.97 629.45 426.48 628.55 425.15 C 625.21 419.71 623.20 409.82 623.76 401.54 C 624.70 387.54 630.17 375.83 646.27 353.38 Z M 686.90 345.34 C 687.05 345.33 687.20 345.38 687.30 345.49 C 687.40 345.59 687.46 345.74 687.44 345.89 C 687.44 346.58 688.82 349.32 690.50 351.98 C 692.18 354.64 696.19 362.98 699.38 370.42 C 713.04 402.42 716.44 420.70 716.44 462.25 C 716.44 502.74 714.24 521.58 705.44 556.81 C 696.44 592.73 691.66 607.34 687.53 611.47 C 685.21 613.79 682.20 614.15 680.73 612.28 C 678.38 609.28 672.33 597.41 669.88 591.01 C 659.65 564.26 661.15 549.01 676.48 524.01 C 681.54 515.75 687.98 502.85 688.85 499.24 C 690.36 492.99 692.46 473.66 692.46 466.10 C 692.46 457.36 690.83 445.50 687.56 430.53 C 684.90 418.29 684.95 414.17 687.97 396.07 C 689.34 387.85 690.21 380.31 689.90 379.32 C 689.39 377.74 688.03 377.53 678.40 377.53 C 668.77 377.53 667.46 377.32 667.46 375.85 C 667.46 374.92 668.88 368.40 670.62 361.35 C 673.62 349.05 673.88 348.53 676.37 348.51 C 678.74 348.23 681.05 347.57 683.21 346.56 C 684.35 345.92 685.60 345.50 686.90 345.32 Z M 722.09 345.88 C 717.67 345.88 715.66 352.17 719.67 354.98 C 722.59 357.03 723.11 356.98 725.92 354.15 C 727.53 352.54 728.13 351.06 727.76 349.63 C 727.11 347.17 726.32 346.56 723.00 345.96 C 722.70 345.90 722.40 345.86 722.09 345.86 Z M 734.16 370.60 C 733.64 370.66 733.14 370.85 732.70 371.14 C 730.27 372.66 729.90 377.29 732.02 379.63 L 732.02 379.63 C 734.23 382.06 736.66 382.06 738.87 379.63 C 741.24 377.00 740.50 373.42 737.20 371.58 C 736.32 370.96 735.28 370.61 734.20 370.58 Z M 815.23 493.60 L 817.90 497.10 C 829.39 512.16 830.55 537.49 821.41 573.69 C 817.57 588.31 812.72 602.63 806.88 616.57 C 797.58 637.94 777.12 678.99 764.51 701.57 C 749.31 728.79 746.16 735.88 739.12 758.57 C 728.40 793.19 723.97 812.11 725.82 815.34 C 733.94 829.27 734.05 829.04 718.49 830.56 C 701.77 832.18 690.42 831.82 686.69 829.56 C 684.90 828.47 683.44 827.19 683.44 826.71 C 683.44 824.27 685.88 819.38 687.54 818.49 C 689.04 817.68 689.44 816.35 689.44 812.06 C 689.44 799.58 695.33 763.49 701.97 735.32 C 709.97 701.47 713.26 690.88 725.86 659.18 C 753.19 590.47 767.66 548.18 765.67 542.74 C 764.41 539.35 761.93 542.57 758.89 551.54 L 755.66 561.04 L 753.00 555.00 C 747.21 542.00 746.30 540.50 744.36 540.50 C 741.22 540.50 742.05 544.13 747.93 556.31 L 753.39 567.62 L 746.00 587.82 C 742.00 598.93 734.14 619.72 728.62 634.01 C 723.10 648.30 716.04 667.21 712.92 676.01 C 709.80 684.81 706.92 692.33 706.57 692.72 C 705.25 694.09 701.41 686.84 699.50 679.37 C 698.44 675.22 695.94 662.19 693.96 650.37 C 691.98 638.55 689.84 626.61 689.22 623.73 C 688.15 618.73 688.22 618.41 690.55 616.57 C 695.55 612.57 699.55 602.03 707.94 570.46 C 714.81 544.55 719.29 523.46 720.01 513.62 C 720.80 502.85 720.68 503.05 725.38 505.45 C 734.31 510.00 745.69 511.90 763.91 511.90 C 788.62 511.90 799.97 508.62 810.05 498.60 Z M 586.68 554.83 C 588.09 554.83 588.77 556.00 590.82 559.96 C 592.46 563.11 594.56 565.98 597.07 568.49 C 598.93 570.12 600.45 572.21 600.45 573.14 C 600.45 577.21 586.69 591.99 579.95 595.14 C 571.39 599.14 565.21 597.99 554.15 590.26 C 550.39 587.67 546.31 585.59 542.00 584.08 C 538.92 583.19 536.41 582.26 536.41 582.01 C 536.41 580.88 543.80 578.01 553.41 575.30 C 559.19 573.69 564.92 571.73 566.14 570.94 C 568.24 569.58 568.47 569.70 570.29 573.26 C 574.64 581.74 584.45 586.71 590.48 583.48 C 593.66 581.78 592.87 579.48 589.08 579.48 C 583.25 579.48 573.32 571.53 572.27 566.02 C 571.90 564.78 570.91 563.83 569.65 563.52 C 567.47 562.68 565.44 561.48 563.65 559.98 L 559.91 556.98 L 570.91 556.35 C 576.91 556.00 583.26 555.42 584.91 555.04 C 585.48 554.88 586.06 554.80 586.65 554.79 Z M 779.42 688.54 C 779.71 688.54 781.03 691.13 782.42 694.29 C 793.32 720.07 802.42 736.07 814.80 751.52 C 829.55 769.85 840.15 780.72 846.36 783.88 C 848.93 785.13 851.39 786.59 853.71 788.26 C 856.29 790.53 856.50 790.26 836.60 813.88 C 832.66 818.56 828.60 822.25 826.04 823.50 C 824.20 824.45 822.23 825.13 820.19 825.50 C 818.41 825.50 813.50 818.55 813.50 816.03 C 813.50 815.20 809.11 809.42 803.75 803.18 C 794.75 792.70 773.75 766.47 758.56 746.72 L 752.20 738.44 L 753.46 734.22 C 754.16 731.90 758.65 723.47 763.46 715.49 C 768.27 707.51 773.71 698.18 775.57 694.74 C 777.43 691.30 779.20 688.52 779.48 688.52 Z M 749.94 744.48 L 759.58 757.25 C 776.35 779.45 793.69 800.73 801.35 808.51 C 805.42 812.64 808.93 817.10 809.15 818.41 C 809.80 822.31 813.29 828.41 815.59 829.60 C 816.78 830.23 819.78 832.51 822.32 831.60 L 827.45 829.79 L 827.45 840.61 C 827.47 846.78 826.92 852.94 825.79 859.00 C 824.18 866.34 824.05 866.56 820.53 867.51 C 812.08 869.78 804.45 876.89 804.45 882.51 C 804.45 884.51 803.96 884.51 782.07 884.51 L 759.69 884.51 L 758.49 881.60 C 757.12 879.08 755.34 876.80 753.24 874.85 C 745.24 867.20 742.24 863.91 738.55 858.51 C 733.12 850.51 726.23 837.67 726.86 836.64 C 727.16 836.16 728.75 835.50 730.40 835.17 C 732.31 834.69 734.07 833.75 735.53 832.42 C 738.76 829.20 737.81 821.78 733.53 816.42 L 730.28 812.42 L 736.85 788.73 C 740.46 775.73 744.85 760.42 746.70 754.73 Z M 850.36 806.54 C 851.03 806.54 851.44 807.06 851.44 808.27 C 851.44 811.95 849.35 817.27 847.10 819.37 C 844.27 822.03 838.74 823.82 837.84 822.37 C 837.50 821.81 838.33 820.16 839.68 818.69 C 841.71 816.33 843.60 813.86 845.34 811.27 C 847.36 808.27 849.24 806.59 850.36 806.54 Z M 857.12 809.54 C 859.93 810.91 862.64 812.47 865.25 814.20 L 868.78 816.40 C 870.51 817.81 872.38 818.61 872.48 822.63 L 872.11 828.45 C 871.76 833.72 870.54 844.34 869.38 852.04 C 868.21 859.74 867.45 867.50 867.10 875.28 L 867.10 875.28 L 866.94 884.52 L 808.21 884.52 L 810.00 881.77 C 816.08 872.42 827.45 870.33 846.29 875.08 C 856.46 877.64 858.81 877.64 857.82 875.08 C 856.74 872.26 840.33 866.56 833.23 866.53 L 829.53 866.53 L 831.15 862.28 C 832.77 858.04 833.62 836.13 832.44 829.03 C 832.00 826.46 832.22 826.03 833.94 826.38 C 835.04 826.57 837.74 826.93 839.94 827.18 C 847.43 828.03 854.46 822.00 855.81 813.59 C 856.17 811.36 856.75 809.53 857.12 809.53 Z M 720.26 836.61 L 723.05 843.19 C 725.16 847.90 727.56 852.48 730.24 856.89 C 732.66 860.81 734.77 864.24 734.93 864.52 C 735.09 864.80 731.79 865.05 727.58 865.09 C 721.58 865.09 718.90 865.68 715.03 867.61 C 710.03 870.09 707.42 872.82 708.72 874.13 C 709.11 874.52 712.09 874.03 715.34 873.05 C 719.74 871.71 723.34 871.38 729.60 871.71 C 739.11 872.23 743.42 874.03 750.44 880.36 L 750.44 880.36 L 754.94 884.43 L 720.06 884.43 L 685.18 884.43 L 685.86 877.18 C 686.94 866.67 688.75 856.26 691.27 846.00 L 693.06 839.00 L 700.00 838.36 C 703.82 838.01 709.94 837.47 713.60 837.16 Z M 844.44 839.52 C 840.30 839.52 836.44 841.52 836.44 843.68 C 836.44 845.31 837.34 845.52 844.44 845.52 C 851.54 845.52 852.44 845.31 852.44 843.68 C 852.44 841.53 848.58 839.52 844.44 839.52 Z M 709.66 849.17 C 706.66 849.17 703.90 849.63 702.80 850.73 C 701.94 851.51 701.54 852.68 701.73 853.83 C 702.17 854.99 703.73 855.21 709.12 854.83 C 717.73 854.27 720.44 853.71 720.44 852.52 C 720.44 850.53 714.69 849.18 709.66 849.17 Z" fill="#483613" fill-rule="nonzero" id="path2615" node-id="23" stroke="none" target-height="699.73456" target-width="1009.18536" target-x="35.44" target-y="192.56"></path></svg>